Stake.Land.2010.DVDSCR.XviD-SiC

IMDB Link 
http://www.imdb.com/title/tt1464580/

Description:

Martin was a normal teenage boy before the country collapsed in an empty pit of economic and political disaster. A vampire epidemic has swept across what is left of the nation's abandoned towns and cities, and it's up to Mister, a death dealing, rogue vampire hunter, to get Martin safely north to Canada, the continent's New Eden

General
Complete name: Stake.Land.2010.DVDSCR.XviD-SiC.avi
Format: AVI
Format/Info: Audio Video Interleave
File size: 702 MiB
Duration: 1h 38mn
Overall bit rate: 993 Kbps
Writing application: VirtualDubMod 1.5.4.1 (build 2178/release)
Writing library: VirtualDubMod build 2178/release

Video
ID: 0
Format: MPEG-4 Visual
Format profile: Advanced Simple@L5
Format settings, BVOP: 1
Format settings, QPel: No
Format settings, GMC: No warppoints
Format settings, Matrix: Custom
Codec ID: XVID
Codec ID/Hint: XviD
Duration: 1h 38mn
Bit rate: 867 Kbps
Width: 672 pixels
Height: 288 pixels
Display aspect ratio: 2.35:1
Frame rate: 23.976 fps
Color space: YUV
Chroma subsampling: 4:2:0
Bit depth: 8 bits
Scan type: Progressive
Compression mode: Lossy
Bits/(Pixel*Frame): 0.187
Stream size: 613 MiB (87%)
Writing library: XviD 63

Audio
ID: 1
Format: MPEG Audio
Format version: Version 1
Format profile: Layer 3
Mode: Joint stereo
Codec ID: 55
Codec ID/Hint: MP3
Duration: 1h 38mn
Bit rate mode: Variable
Bit rate: 114 Kbps
Nominal bit rate: 128 Kbps
Channel(s): 2 channels
Sampling rate: 48.0 KHz
Compression mode: Lossy
Stream size: 80.4 MiB (11%)
Alignment: Aligned on interleaves
Interleave, duration: 24 ms (0.58 video frame)
Interleave, preload duration: 492 ms
Writing library: LAME3.98r


Screens:

 
http://www.postimg.com/image/38000/photo-37558.jpg
 
http://www.postimg.com/image/38000/photo-37559.jpg
 
http://www.postimg.com/image/38000/photo-37560.jpg


ENJOY!